# xmcd CD database file
#
# Track frame offsets:
#	151
#	14000
#	35939
#	51017
#	65049
#	79177
#
# Disc length: 1419 seconds
#
# Revision: 0
# Processed by: cddbd v1.5.2PL0 Copyright (c) Steve Scherf et al.
# Submitted via: CDex 1.51
#
DISCID=53058906
DTITLE=Duke Ellington - Essentially Ellington 2004
DYEAR=2004
DGENRE=Jazz
TTITLE0=Stompy Jones
TTITLE1=Rhapsody in Blue
TTITLE2=Jack the Bear
TTITLE3=Sugar Rum Cherry
TTITLE4=Bli-Blip
TTITLE5=Diminuendo in Blue/Crescendo in Blue
EXTD=YEAR: 2004
EXTT0=
EXTT1=
EXTT2=
EXTT3=
EXTT4=
EXTT5=
PLAYORDER=
